<mxfile host="app.diagrams.net" modified="2022-12-29T14:12:01.732Z" agent="5.0 (Macintosh; Intel Mac OS X 10_15_7) AppleWebKit/537.36 (KHTML, like Gecko) Chrome/108.0.0.0 Safari/537.36" etag="731_kHQDNwP71XT8VYeL" version="20.3.3" type="github">
  <diagram id="1pl5P6Pk0T8H5DpXOKpC" name="第 1 页">
    <mxGraphModel dx="1997" dy="729" grid="1" gridSize="10" guides="1" tooltips="1" connect="1" arrows="1" fold="1" page="1" pageScale="1" pageWidth="827" pageHeight="1169" math="0" shadow="0">
      <root>
        <mxCell id="0" />
        <mxCell id="1" parent="0" />
        <mxCell id="E2Ne8hw-jMb7lJD2Bm2a-1" value="&lt;font style=&quot;font-size: 24px;&quot;&gt;2&lt;/font&gt;" style="rounded=0;whiteSpace=wrap;html=1;" vertex="1" parent="1">
          <mxGeometry x="150" y="310" width="80" height="60" as="geometry" />
        </mxCell>
        <mxCell id="E2Ne8hw-jMb7lJD2Bm2a-2" value="&lt;font style=&quot;font-size: 24px;&quot;&gt;3&lt;/font&gt;" style="rounded=0;whiteSpace=wrap;html=1;" vertex="1" parent="1">
          <mxGeometry x="230" y="310" width="80" height="60" as="geometry" />
        </mxCell>
        <mxCell id="E2Ne8hw-jMb7lJD2Bm2a-3" value="&lt;font style=&quot;font-size: 24px;&quot;&gt;1&lt;/font&gt;" style="rounded=0;whiteSpace=wrap;html=1;" vertex="1" parent="1">
          <mxGeometry x="310" y="310" width="80" height="60" as="geometry" />
        </mxCell>
        <mxCell id="E2Ne8hw-jMb7lJD2Bm2a-4" value="&lt;font style=&quot;font-size: 24px;&quot;&gt;2&lt;/font&gt;" style="rounded=0;whiteSpace=wrap;html=1;" vertex="1" parent="1">
          <mxGeometry x="390" y="310" width="80" height="60" as="geometry" />
        </mxCell>
        <mxCell id="E2Ne8hw-jMb7lJD2Bm2a-5" value="&lt;font style=&quot;font-size: 24px;&quot;&gt;4&lt;/font&gt;" style="rounded=0;whiteSpace=wrap;html=1;" vertex="1" parent="1">
          <mxGeometry x="470" y="310" width="80" height="60" as="geometry" />
        </mxCell>
        <mxCell id="E2Ne8hw-jMb7lJD2Bm2a-6" value="&lt;font style=&quot;font-size: 24px;&quot;&gt;3&lt;/font&gt;" style="rounded=0;whiteSpace=wrap;html=1;" vertex="1" parent="1">
          <mxGeometry x="550" y="310" width="80" height="60" as="geometry" />
        </mxCell>
        <mxCell id="E2Ne8hw-jMb7lJD2Bm2a-7" value="i：滑动窗口起始位置&lt;br&gt;j：滑动窗口终止位置" style="text;html=1;align=center;verticalAlign=middle;resizable=0;points=[];autosize=1;strokeColor=none;fillColor=none;fontSize=24;" vertex="1" parent="1">
          <mxGeometry x="-130" y="150" width="240" height="70" as="geometry" />
        </mxCell>
        <mxCell id="E2Ne8hw-jMb7lJD2Bm2a-9" value="" style="shape=flexArrow;endArrow=classic;html=1;rounded=0;fontSize=24;fillColor=#FF0000;" edge="1" parent="1">
          <mxGeometry width="50" height="50" relative="1" as="geometry">
            <mxPoint x="189.5" y="240" as="sourcePoint" />
            <mxPoint x="189.5" y="300" as="targetPoint" />
          </mxGeometry>
        </mxCell>
        <mxCell id="E2Ne8hw-jMb7lJD2Bm2a-11" value="" style="shape=flexArrow;endArrow=classic;html=1;rounded=0;fontSize=24;fillColor=#FF0000;" edge="1" parent="1">
          <mxGeometry width="50" height="50" relative="1" as="geometry">
            <mxPoint x="189.5" y="460" as="sourcePoint" />
            <mxPoint x="189.5" y="390" as="targetPoint" />
          </mxGeometry>
        </mxCell>
        <mxCell id="E2Ne8hw-jMb7lJD2Bm2a-14" value="i" style="text;html=1;align=center;verticalAlign=middle;resizable=0;points=[];autosize=1;strokeColor=none;fillColor=none;fontSize=24;" vertex="1" parent="1">
          <mxGeometry x="175" y="190" width="30" height="40" as="geometry" />
        </mxCell>
        <mxCell id="E2Ne8hw-jMb7lJD2Bm2a-15" value="j" style="text;html=1;align=center;verticalAlign=middle;resizable=0;points=[];autosize=1;strokeColor=none;fillColor=none;fontSize=24;" vertex="1" parent="1">
          <mxGeometry x="175" y="460" width="30" height="40" as="geometry" />
        </mxCell>
        <mxCell id="E2Ne8hw-jMb7lJD2Bm2a-16" value="&lt;font style=&quot;font-size: 24px;&quot;&gt;2&lt;/font&gt;" style="rounded=0;whiteSpace=wrap;html=1;" vertex="1" parent="1">
          <mxGeometry x="150" y="640" width="80" height="60" as="geometry" />
        </mxCell>
        <mxCell id="E2Ne8hw-jMb7lJD2Bm2a-17" value="&lt;font style=&quot;font-size: 24px;&quot;&gt;3&lt;/font&gt;" style="rounded=0;whiteSpace=wrap;html=1;" vertex="1" parent="1">
          <mxGeometry x="230" y="640" width="80" height="60" as="geometry" />
        </mxCell>
        <mxCell id="E2Ne8hw-jMb7lJD2Bm2a-18" value="&lt;font style=&quot;font-size: 24px;&quot;&gt;1&lt;/font&gt;" style="rounded=0;whiteSpace=wrap;html=1;" vertex="1" parent="1">
          <mxGeometry x="310" y="640" width="80" height="60" as="geometry" />
        </mxCell>
        <mxCell id="E2Ne8hw-jMb7lJD2Bm2a-19" value="&lt;font style=&quot;font-size: 24px;&quot;&gt;2&lt;/font&gt;" style="rounded=0;whiteSpace=wrap;html=1;" vertex="1" parent="1">
          <mxGeometry x="390" y="640" width="80" height="60" as="geometry" />
        </mxCell>
        <mxCell id="E2Ne8hw-jMb7lJD2Bm2a-20" value="&lt;font style=&quot;font-size: 24px;&quot;&gt;4&lt;/font&gt;" style="rounded=0;whiteSpace=wrap;html=1;" vertex="1" parent="1">
          <mxGeometry x="470" y="640" width="80" height="60" as="geometry" />
        </mxCell>
        <mxCell id="E2Ne8hw-jMb7lJD2Bm2a-21" value="&lt;font style=&quot;font-size: 24px;&quot;&gt;3&lt;/font&gt;" style="rounded=0;whiteSpace=wrap;html=1;" vertex="1" parent="1">
          <mxGeometry x="550" y="640" width="80" height="60" as="geometry" />
        </mxCell>
        <mxCell id="E2Ne8hw-jMb7lJD2Bm2a-22" value="" style="shape=flexArrow;endArrow=classic;html=1;rounded=0;fontSize=24;fillColor=#FF0000;" edge="1" parent="1">
          <mxGeometry width="50" height="50" relative="1" as="geometry">
            <mxPoint x="189.5" y="570" as="sourcePoint" />
            <mxPoint x="189.5" y="630" as="targetPoint" />
          </mxGeometry>
        </mxCell>
        <mxCell id="E2Ne8hw-jMb7lJD2Bm2a-23" value="" style="shape=flexArrow;endArrow=classic;html=1;rounded=0;fontSize=24;fillColor=#FF0000;" edge="1" parent="1">
          <mxGeometry width="50" height="50" relative="1" as="geometry">
            <mxPoint x="269.5" y="790" as="sourcePoint" />
            <mxPoint x="269.5" y="720" as="targetPoint" />
          </mxGeometry>
        </mxCell>
        <mxCell id="E2Ne8hw-jMb7lJD2Bm2a-24" value="i" style="text;html=1;align=center;verticalAlign=middle;resizable=0;points=[];autosize=1;strokeColor=none;fillColor=none;fontSize=24;" vertex="1" parent="1">
          <mxGeometry x="175" y="520" width="30" height="40" as="geometry" />
        </mxCell>
        <mxCell id="E2Ne8hw-jMb7lJD2Bm2a-25" value="j" style="text;html=1;align=center;verticalAlign=middle;resizable=0;points=[];autosize=1;strokeColor=none;fillColor=none;fontSize=24;" vertex="1" parent="1">
          <mxGeometry x="255" y="790" width="30" height="40" as="geometry" />
        </mxCell>
        <mxCell id="E2Ne8hw-jMb7lJD2Bm2a-38" value="&lt;font style=&quot;font-size: 24px;&quot;&gt;2&lt;/font&gt;" style="rounded=0;whiteSpace=wrap;html=1;" vertex="1" parent="1">
          <mxGeometry x="150" y="640" width="80" height="60" as="geometry" />
        </mxCell>
        <mxCell id="E2Ne8hw-jMb7lJD2Bm2a-39" value="&lt;font style=&quot;font-size: 24px;&quot;&gt;3&lt;/font&gt;" style="rounded=0;whiteSpace=wrap;html=1;" vertex="1" parent="1">
          <mxGeometry x="230" y="640" width="80" height="60" as="geometry" />
        </mxCell>
        <mxCell id="E2Ne8hw-jMb7lJD2Bm2a-40" value="&lt;font style=&quot;font-size: 24px;&quot;&gt;1&lt;/font&gt;" style="rounded=0;whiteSpace=wrap;html=1;" vertex="1" parent="1">
          <mxGeometry x="310" y="640" width="80" height="60" as="geometry" />
        </mxCell>
        <mxCell id="E2Ne8hw-jMb7lJD2Bm2a-41" value="&lt;font style=&quot;font-size: 24px;&quot;&gt;2&lt;/font&gt;" style="rounded=0;whiteSpace=wrap;html=1;" vertex="1" parent="1">
          <mxGeometry x="390" y="640" width="80" height="60" as="geometry" />
        </mxCell>
        <mxCell id="E2Ne8hw-jMb7lJD2Bm2a-42" value="&lt;font style=&quot;font-size: 24px;&quot;&gt;4&lt;/font&gt;" style="rounded=0;whiteSpace=wrap;html=1;" vertex="1" parent="1">
          <mxGeometry x="470" y="640" width="80" height="60" as="geometry" />
        </mxCell>
        <mxCell id="E2Ne8hw-jMb7lJD2Bm2a-43" value="&lt;font style=&quot;font-size: 24px;&quot;&gt;3&lt;/font&gt;" style="rounded=0;whiteSpace=wrap;html=1;" vertex="1" parent="1">
          <mxGeometry x="550" y="640" width="80" height="60" as="geometry" />
        </mxCell>
        <mxCell id="E2Ne8hw-jMb7lJD2Bm2a-44" value="" style="shape=flexArrow;endArrow=classic;html=1;rounded=0;fontSize=24;fillColor=#FF0000;" edge="1" parent="1">
          <mxGeometry width="50" height="50" relative="1" as="geometry">
            <mxPoint x="189.5" y="570" as="sourcePoint" />
            <mxPoint x="189.5" y="630" as="targetPoint" />
          </mxGeometry>
        </mxCell>
        <mxCell id="E2Ne8hw-jMb7lJD2Bm2a-45" value="" style="shape=flexArrow;endArrow=classic;html=1;rounded=0;fontSize=24;fillColor=#FF0000;" edge="1" parent="1">
          <mxGeometry width="50" height="50" relative="1" as="geometry">
            <mxPoint x="269.5" y="790" as="sourcePoint" />
            <mxPoint x="269.5" y="720" as="targetPoint" />
          </mxGeometry>
        </mxCell>
        <mxCell id="E2Ne8hw-jMb7lJD2Bm2a-46" value="i" style="text;html=1;align=center;verticalAlign=middle;resizable=0;points=[];autosize=1;strokeColor=none;fillColor=none;fontSize=24;" vertex="1" parent="1">
          <mxGeometry x="175" y="520" width="30" height="40" as="geometry" />
        </mxCell>
        <mxCell id="E2Ne8hw-jMb7lJD2Bm2a-47" value="j" style="text;html=1;align=center;verticalAlign=middle;resizable=0;points=[];autosize=1;strokeColor=none;fillColor=none;fontSize=24;" vertex="1" parent="1">
          <mxGeometry x="255" y="790" width="30" height="40" as="geometry" />
        </mxCell>
        <mxCell id="E2Ne8hw-jMb7lJD2Bm2a-48" value="&lt;font style=&quot;font-size: 24px;&quot;&gt;2&lt;/font&gt;" style="rounded=0;whiteSpace=wrap;html=1;" vertex="1" parent="1">
          <mxGeometry x="150" y="950" width="80" height="60" as="geometry" />
        </mxCell>
        <mxCell id="E2Ne8hw-jMb7lJD2Bm2a-49" value="&lt;font style=&quot;font-size: 24px;&quot;&gt;3&lt;/font&gt;" style="rounded=0;whiteSpace=wrap;html=1;" vertex="1" parent="1">
          <mxGeometry x="230" y="950" width="80" height="60" as="geometry" />
        </mxCell>
        <mxCell id="E2Ne8hw-jMb7lJD2Bm2a-50" value="&lt;font style=&quot;font-size: 24px;&quot;&gt;1&lt;/font&gt;" style="rounded=0;whiteSpace=wrap;html=1;" vertex="1" parent="1">
          <mxGeometry x="310" y="950" width="80" height="60" as="geometry" />
        </mxCell>
        <mxCell id="E2Ne8hw-jMb7lJD2Bm2a-51" value="&lt;font style=&quot;font-size: 24px;&quot;&gt;2&lt;/font&gt;" style="rounded=0;whiteSpace=wrap;html=1;" vertex="1" parent="1">
          <mxGeometry x="390" y="950" width="80" height="60" as="geometry" />
        </mxCell>
        <mxCell id="E2Ne8hw-jMb7lJD2Bm2a-52" value="&lt;font style=&quot;font-size: 24px;&quot;&gt;4&lt;/font&gt;" style="rounded=0;whiteSpace=wrap;html=1;" vertex="1" parent="1">
          <mxGeometry x="470" y="950" width="80" height="60" as="geometry" />
        </mxCell>
        <mxCell id="E2Ne8hw-jMb7lJD2Bm2a-53" value="&lt;font style=&quot;font-size: 24px;&quot;&gt;3&lt;/font&gt;" style="rounded=0;whiteSpace=wrap;html=1;" vertex="1" parent="1">
          <mxGeometry x="550" y="950" width="80" height="60" as="geometry" />
        </mxCell>
        <mxCell id="E2Ne8hw-jMb7lJD2Bm2a-54" value="" style="shape=flexArrow;endArrow=classic;html=1;rounded=0;fontSize=24;fillColor=#FF0000;" edge="1" parent="1">
          <mxGeometry width="50" height="50" relative="1" as="geometry">
            <mxPoint x="189.5" y="880" as="sourcePoint" />
            <mxPoint x="189.5" y="940" as="targetPoint" />
          </mxGeometry>
        </mxCell>
        <mxCell id="E2Ne8hw-jMb7lJD2Bm2a-56" value="i" style="text;html=1;align=center;verticalAlign=middle;resizable=0;points=[];autosize=1;strokeColor=none;fillColor=none;fontSize=24;" vertex="1" parent="1">
          <mxGeometry x="175" y="830" width="30" height="40" as="geometry" />
        </mxCell>
        <mxCell id="E2Ne8hw-jMb7lJD2Bm2a-58" value="" style="shape=flexArrow;endArrow=classic;html=1;rounded=0;fontSize=24;fillColor=#FF0000;" edge="1" parent="1">
          <mxGeometry width="50" height="50" relative="1" as="geometry">
            <mxPoint x="349.5" y="1100" as="sourcePoint" />
            <mxPoint x="349.5" y="1030" as="targetPoint" />
          </mxGeometry>
        </mxCell>
        <mxCell id="E2Ne8hw-jMb7lJD2Bm2a-59" value="j" style="text;html=1;align=center;verticalAlign=middle;resizable=0;points=[];autosize=1;strokeColor=none;fillColor=none;fontSize=24;" vertex="1" parent="1">
          <mxGeometry x="335" y="1100" width="30" height="40" as="geometry" />
        </mxCell>
        <mxCell id="E2Ne8hw-jMb7lJD2Bm2a-60" value="&lt;font style=&quot;font-size: 24px;&quot;&gt;2&lt;/font&gt;" style="rounded=0;whiteSpace=wrap;html=1;" vertex="1" parent="1">
          <mxGeometry x="150" y="1260" width="80" height="60" as="geometry" />
        </mxCell>
        <mxCell id="E2Ne8hw-jMb7lJD2Bm2a-61" value="&lt;font style=&quot;font-size: 24px;&quot;&gt;3&lt;/font&gt;" style="rounded=0;whiteSpace=wrap;html=1;" vertex="1" parent="1">
          <mxGeometry x="230" y="1260" width="80" height="60" as="geometry" />
        </mxCell>
        <mxCell id="E2Ne8hw-jMb7lJD2Bm2a-62" value="&lt;font style=&quot;font-size: 24px;&quot;&gt;1&lt;/font&gt;" style="rounded=0;whiteSpace=wrap;html=1;" vertex="1" parent="1">
          <mxGeometry x="310" y="1260" width="80" height="60" as="geometry" />
        </mxCell>
        <mxCell id="E2Ne8hw-jMb7lJD2Bm2a-63" value="&lt;font style=&quot;font-size: 24px;&quot;&gt;2&lt;/font&gt;" style="rounded=0;whiteSpace=wrap;html=1;" vertex="1" parent="1">
          <mxGeometry x="390" y="1260" width="80" height="60" as="geometry" />
        </mxCell>
        <mxCell id="E2Ne8hw-jMb7lJD2Bm2a-64" value="&lt;font style=&quot;font-size: 24px;&quot;&gt;4&lt;/font&gt;" style="rounded=0;whiteSpace=wrap;html=1;" vertex="1" parent="1">
          <mxGeometry x="470" y="1260" width="80" height="60" as="geometry" />
        </mxCell>
        <mxCell id="E2Ne8hw-jMb7lJD2Bm2a-65" value="&lt;font style=&quot;font-size: 24px;&quot;&gt;3&lt;/font&gt;" style="rounded=0;whiteSpace=wrap;html=1;" vertex="1" parent="1">
          <mxGeometry x="550" y="1260" width="80" height="60" as="geometry" />
        </mxCell>
        <mxCell id="E2Ne8hw-jMb7lJD2Bm2a-66" value="" style="shape=flexArrow;endArrow=classic;html=1;rounded=0;fontSize=24;fillColor=#FF0000;" edge="1" parent="1">
          <mxGeometry width="50" height="50" relative="1" as="geometry">
            <mxPoint x="189.5" y="1190" as="sourcePoint" />
            <mxPoint x="189.5" y="1250" as="targetPoint" />
          </mxGeometry>
        </mxCell>
        <mxCell id="E2Ne8hw-jMb7lJD2Bm2a-67" value="i" style="text;html=1;align=center;verticalAlign=middle;resizable=0;points=[];autosize=1;strokeColor=none;fillColor=none;fontSize=24;" vertex="1" parent="1">
          <mxGeometry x="175" y="1140" width="30" height="40" as="geometry" />
        </mxCell>
        <mxCell id="E2Ne8hw-jMb7lJD2Bm2a-68" value="" style="shape=flexArrow;endArrow=classic;html=1;rounded=0;fontSize=24;fillColor=#FF0000;" edge="1" parent="1">
          <mxGeometry width="50" height="50" relative="1" as="geometry">
            <mxPoint x="429.5" y="1410" as="sourcePoint" />
            <mxPoint x="429.5" y="1340" as="targetPoint" />
          </mxGeometry>
        </mxCell>
        <mxCell id="E2Ne8hw-jMb7lJD2Bm2a-69" value="j" style="text;html=1;align=center;verticalAlign=middle;resizable=0;points=[];autosize=1;strokeColor=none;fillColor=none;fontSize=24;" vertex="1" parent="1">
          <mxGeometry x="415" y="1410" width="30" height="40" as="geometry" />
        </mxCell>
        <mxCell id="E2Ne8hw-jMb7lJD2Bm2a-79" value="&lt;font style=&quot;font-size: 24px;&quot;&gt;2&lt;/font&gt;" style="rounded=0;whiteSpace=wrap;html=1;" vertex="1" parent="1">
          <mxGeometry x="150" y="1540" width="80" height="60" as="geometry" />
        </mxCell>
        <mxCell id="E2Ne8hw-jMb7lJD2Bm2a-80" value="&lt;font style=&quot;font-size: 24px;&quot;&gt;3&lt;/font&gt;" style="rounded=0;whiteSpace=wrap;html=1;" vertex="1" parent="1">
          <mxGeometry x="230" y="1540" width="80" height="60" as="geometry" />
        </mxCell>
        <mxCell id="E2Ne8hw-jMb7lJD2Bm2a-81" value="&lt;font style=&quot;font-size: 24px;&quot;&gt;1&lt;/font&gt;" style="rounded=0;whiteSpace=wrap;html=1;" vertex="1" parent="1">
          <mxGeometry x="310" y="1540" width="80" height="60" as="geometry" />
        </mxCell>
        <mxCell id="E2Ne8hw-jMb7lJD2Bm2a-82" value="&lt;font style=&quot;font-size: 24px;&quot;&gt;2&lt;/font&gt;" style="rounded=0;whiteSpace=wrap;html=1;" vertex="1" parent="1">
          <mxGeometry x="390" y="1540" width="80" height="60" as="geometry" />
        </mxCell>
        <mxCell id="E2Ne8hw-jMb7lJD2Bm2a-83" value="&lt;font style=&quot;font-size: 24px;&quot;&gt;4&lt;/font&gt;" style="rounded=0;whiteSpace=wrap;html=1;" vertex="1" parent="1">
          <mxGeometry x="470" y="1540" width="80" height="60" as="geometry" />
        </mxCell>
        <mxCell id="E2Ne8hw-jMb7lJD2Bm2a-84" value="&lt;font style=&quot;font-size: 24px;&quot;&gt;3&lt;/font&gt;" style="rounded=0;whiteSpace=wrap;html=1;" vertex="1" parent="1">
          <mxGeometry x="550" y="1540" width="80" height="60" as="geometry" />
        </mxCell>
        <mxCell id="E2Ne8hw-jMb7lJD2Bm2a-85" value="" style="shape=flexArrow;endArrow=classic;html=1;rounded=0;fontSize=24;fillColor=#FF0000;" edge="1" parent="1">
          <mxGeometry width="50" height="50" relative="1" as="geometry">
            <mxPoint x="269.5" y="1470" as="sourcePoint" />
            <mxPoint x="269.5" y="1530" as="targetPoint" />
            <Array as="points">
              <mxPoint x="270" y="1490" />
            </Array>
          </mxGeometry>
        </mxCell>
        <mxCell id="E2Ne8hw-jMb7lJD2Bm2a-86" value="i" style="text;html=1;align=center;verticalAlign=middle;resizable=0;points=[];autosize=1;strokeColor=none;fillColor=none;fontSize=24;" vertex="1" parent="1">
          <mxGeometry x="255" y="1420" width="30" height="40" as="geometry" />
        </mxCell>
        <mxCell id="E2Ne8hw-jMb7lJD2Bm2a-87" value="" style="shape=flexArrow;endArrow=classic;html=1;rounded=0;fontSize=24;fillColor=#FF0000;" edge="1" parent="1">
          <mxGeometry width="50" height="50" relative="1" as="geometry">
            <mxPoint x="429.5" y="1690" as="sourcePoint" />
            <mxPoint x="429.5" y="1620" as="targetPoint" />
          </mxGeometry>
        </mxCell>
        <mxCell id="E2Ne8hw-jMb7lJD2Bm2a-88" value="j" style="text;html=1;align=center;verticalAlign=middle;resizable=0;points=[];autosize=1;strokeColor=none;fillColor=none;fontSize=24;" vertex="1" parent="1">
          <mxGeometry x="415" y="1690" width="30" height="40" as="geometry" />
        </mxCell>
        <mxCell id="E2Ne8hw-jMb7lJD2Bm2a-89" value="&lt;font style=&quot;font-size: 24px;&quot;&gt;2&lt;/font&gt;" style="rounded=0;whiteSpace=wrap;html=1;" vertex="1" parent="1">
          <mxGeometry x="150" y="1820" width="80" height="60" as="geometry" />
        </mxCell>
        <mxCell id="E2Ne8hw-jMb7lJD2Bm2a-90" value="&lt;font style=&quot;font-size: 24px;&quot;&gt;3&lt;/font&gt;" style="rounded=0;whiteSpace=wrap;html=1;" vertex="1" parent="1">
          <mxGeometry x="230" y="1820" width="80" height="60" as="geometry" />
        </mxCell>
        <mxCell id="E2Ne8hw-jMb7lJD2Bm2a-91" value="&lt;font style=&quot;font-size: 24px;&quot;&gt;1&lt;/font&gt;" style="rounded=0;whiteSpace=wrap;html=1;" vertex="1" parent="1">
          <mxGeometry x="310" y="1820" width="80" height="60" as="geometry" />
        </mxCell>
        <mxCell id="E2Ne8hw-jMb7lJD2Bm2a-92" value="&lt;font style=&quot;font-size: 24px;&quot;&gt;2&lt;/font&gt;" style="rounded=0;whiteSpace=wrap;html=1;" vertex="1" parent="1">
          <mxGeometry x="390" y="1820" width="80" height="60" as="geometry" />
        </mxCell>
        <mxCell id="E2Ne8hw-jMb7lJD2Bm2a-93" value="&lt;font style=&quot;font-size: 24px;&quot;&gt;4&lt;/font&gt;" style="rounded=0;whiteSpace=wrap;html=1;" vertex="1" parent="1">
          <mxGeometry x="470" y="1820" width="80" height="60" as="geometry" />
        </mxCell>
        <mxCell id="E2Ne8hw-jMb7lJD2Bm2a-94" value="&lt;font style=&quot;font-size: 24px;&quot;&gt;3&lt;/font&gt;" style="rounded=0;whiteSpace=wrap;html=1;" vertex="1" parent="1">
          <mxGeometry x="550" y="1820" width="80" height="60" as="geometry" />
        </mxCell>
        <mxCell id="E2Ne8hw-jMb7lJD2Bm2a-95" value="" style="shape=flexArrow;endArrow=classic;html=1;rounded=0;fontSize=24;fillColor=#FF0000;" edge="1" parent="1">
          <mxGeometry width="50" height="50" relative="1" as="geometry">
            <mxPoint x="269.5" y="1750" as="sourcePoint" />
            <mxPoint x="269.5" y="1810" as="targetPoint" />
            <Array as="points">
              <mxPoint x="270" y="1770" />
            </Array>
          </mxGeometry>
        </mxCell>
        <mxCell id="E2Ne8hw-jMb7lJD2Bm2a-96" value="i" style="text;html=1;align=center;verticalAlign=middle;resizable=0;points=[];autosize=1;strokeColor=none;fillColor=none;fontSize=24;" vertex="1" parent="1">
          <mxGeometry x="255" y="1700" width="30" height="40" as="geometry" />
        </mxCell>
        <mxCell id="E2Ne8hw-jMb7lJD2Bm2a-97" value="" style="shape=flexArrow;endArrow=classic;html=1;rounded=0;fontSize=24;fillColor=#FF0000;" edge="1" parent="1">
          <mxGeometry width="50" height="50" relative="1" as="geometry">
            <mxPoint x="509.5" y="1970" as="sourcePoint" />
            <mxPoint x="509.5" y="1900" as="targetPoint" />
          </mxGeometry>
        </mxCell>
        <mxCell id="E2Ne8hw-jMb7lJD2Bm2a-98" value="j" style="text;html=1;align=center;verticalAlign=middle;resizable=0;points=[];autosize=1;strokeColor=none;fillColor=none;fontSize=24;" vertex="1" parent="1">
          <mxGeometry x="495" y="1970" width="30" height="40" as="geometry" />
        </mxCell>
        <mxCell id="E2Ne8hw-jMb7lJD2Bm2a-99" value="&lt;font style=&quot;font-size: 24px;&quot;&gt;2&lt;/font&gt;" style="rounded=0;whiteSpace=wrap;html=1;" vertex="1" parent="1">
          <mxGeometry x="150" y="2080" width="80" height="60" as="geometry" />
        </mxCell>
        <mxCell id="E2Ne8hw-jMb7lJD2Bm2a-100" value="&lt;font style=&quot;font-size: 24px;&quot;&gt;3&lt;/font&gt;" style="rounded=0;whiteSpace=wrap;html=1;" vertex="1" parent="1">
          <mxGeometry x="230" y="2080" width="80" height="60" as="geometry" />
        </mxCell>
        <mxCell id="E2Ne8hw-jMb7lJD2Bm2a-101" value="&lt;font style=&quot;font-size: 24px;&quot;&gt;1&lt;/font&gt;" style="rounded=0;whiteSpace=wrap;html=1;" vertex="1" parent="1">
          <mxGeometry x="310" y="2080" width="80" height="60" as="geometry" />
        </mxCell>
        <mxCell id="E2Ne8hw-jMb7lJD2Bm2a-102" value="&lt;font style=&quot;font-size: 24px;&quot;&gt;2&lt;/font&gt;" style="rounded=0;whiteSpace=wrap;html=1;" vertex="1" parent="1">
          <mxGeometry x="390" y="2080" width="80" height="60" as="geometry" />
        </mxCell>
        <mxCell id="E2Ne8hw-jMb7lJD2Bm2a-103" value="&lt;font style=&quot;font-size: 24px;&quot;&gt;4&lt;/font&gt;" style="rounded=0;whiteSpace=wrap;html=1;" vertex="1" parent="1">
          <mxGeometry x="470" y="2080" width="80" height="60" as="geometry" />
        </mxCell>
        <mxCell id="E2Ne8hw-jMb7lJD2Bm2a-104" value="&lt;font style=&quot;font-size: 24px;&quot;&gt;3&lt;/font&gt;" style="rounded=0;whiteSpace=wrap;html=1;" vertex="1" parent="1">
          <mxGeometry x="550" y="2080" width="80" height="60" as="geometry" />
        </mxCell>
        <mxCell id="E2Ne8hw-jMb7lJD2Bm2a-105" value="" style="shape=flexArrow;endArrow=classic;html=1;rounded=0;fontSize=24;fillColor=#FF0000;" edge="1" parent="1">
          <mxGeometry width="50" height="50" relative="1" as="geometry">
            <mxPoint x="349.5" y="2010" as="sourcePoint" />
            <mxPoint x="349.5" y="2070" as="targetPoint" />
            <Array as="points">
              <mxPoint x="350" y="2030" />
            </Array>
          </mxGeometry>
        </mxCell>
        <mxCell id="E2Ne8hw-jMb7lJD2Bm2a-106" value="i" style="text;html=1;align=center;verticalAlign=middle;resizable=0;points=[];autosize=1;strokeColor=none;fillColor=none;fontSize=24;" vertex="1" parent="1">
          <mxGeometry x="335" y="1960" width="30" height="40" as="geometry" />
        </mxCell>
        <mxCell id="E2Ne8hw-jMb7lJD2Bm2a-107" value="" style="shape=flexArrow;endArrow=classic;html=1;rounded=0;fontSize=24;fillColor=#FF0000;" edge="1" parent="1">
          <mxGeometry width="50" height="50" relative="1" as="geometry">
            <mxPoint x="509.5" y="2230" as="sourcePoint" />
            <mxPoint x="509.5" y="2160" as="targetPoint" />
          </mxGeometry>
        </mxCell>
        <mxCell id="E2Ne8hw-jMb7lJD2Bm2a-108" value="j" style="text;html=1;align=center;verticalAlign=middle;resizable=0;points=[];autosize=1;strokeColor=none;fillColor=none;fontSize=24;" vertex="1" parent="1">
          <mxGeometry x="495" y="2230" width="30" height="40" as="geometry" />
        </mxCell>
        <mxCell id="E2Ne8hw-jMb7lJD2Bm2a-110" value="&lt;font style=&quot;font-size: 24px;&quot;&gt;2&lt;/font&gt;" style="rounded=0;whiteSpace=wrap;html=1;" vertex="1" parent="1">
          <mxGeometry x="150" y="2370" width="80" height="60" as="geometry" />
        </mxCell>
        <mxCell id="E2Ne8hw-jMb7lJD2Bm2a-111" value="&lt;font style=&quot;font-size: 24px;&quot;&gt;3&lt;/font&gt;" style="rounded=0;whiteSpace=wrap;html=1;" vertex="1" parent="1">
          <mxGeometry x="230" y="2370" width="80" height="60" as="geometry" />
        </mxCell>
        <mxCell id="E2Ne8hw-jMb7lJD2Bm2a-112" value="&lt;font style=&quot;font-size: 24px;&quot;&gt;1&lt;/font&gt;" style="rounded=0;whiteSpace=wrap;html=1;" vertex="1" parent="1">
          <mxGeometry x="310" y="2370" width="80" height="60" as="geometry" />
        </mxCell>
        <mxCell id="E2Ne8hw-jMb7lJD2Bm2a-113" value="&lt;font style=&quot;font-size: 24px;&quot;&gt;2&lt;/font&gt;" style="rounded=0;whiteSpace=wrap;html=1;" vertex="1" parent="1">
          <mxGeometry x="390" y="2370" width="80" height="60" as="geometry" />
        </mxCell>
        <mxCell id="E2Ne8hw-jMb7lJD2Bm2a-114" value="&lt;font style=&quot;font-size: 24px;&quot;&gt;4&lt;/font&gt;" style="rounded=0;whiteSpace=wrap;html=1;" vertex="1" parent="1">
          <mxGeometry x="470" y="2370" width="80" height="60" as="geometry" />
        </mxCell>
        <mxCell id="E2Ne8hw-jMb7lJD2Bm2a-115" value="&lt;font style=&quot;font-size: 24px;&quot;&gt;3&lt;/font&gt;" style="rounded=0;whiteSpace=wrap;html=1;" vertex="1" parent="1">
          <mxGeometry x="550" y="2370" width="80" height="60" as="geometry" />
        </mxCell>
        <mxCell id="E2Ne8hw-jMb7lJD2Bm2a-116" value="" style="shape=flexArrow;endArrow=classic;html=1;rounded=0;fontSize=24;fillColor=#FF0000;" edge="1" parent="1">
          <mxGeometry width="50" height="50" relative="1" as="geometry">
            <mxPoint x="429.5" y="2300" as="sourcePoint" />
            <mxPoint x="429.5" y="2360" as="targetPoint" />
            <Array as="points">
              <mxPoint x="430" y="2320" />
            </Array>
          </mxGeometry>
        </mxCell>
        <mxCell id="E2Ne8hw-jMb7lJD2Bm2a-117" value="i" style="text;html=1;align=center;verticalAlign=middle;resizable=0;points=[];autosize=1;strokeColor=none;fillColor=none;fontSize=24;" vertex="1" parent="1">
          <mxGeometry x="415" y="2250" width="30" height="40" as="geometry" />
        </mxCell>
        <mxCell id="E2Ne8hw-jMb7lJD2Bm2a-118" value="" style="shape=flexArrow;endArrow=classic;html=1;rounded=0;fontSize=24;fillColor=#FF0000;" edge="1" parent="1">
          <mxGeometry width="50" height="50" relative="1" as="geometry">
            <mxPoint x="509.5" y="2520" as="sourcePoint" />
            <mxPoint x="509.5" y="2450" as="targetPoint" />
          </mxGeometry>
        </mxCell>
        <mxCell id="E2Ne8hw-jMb7lJD2Bm2a-119" value="j" style="text;html=1;align=center;verticalAlign=middle;resizable=0;points=[];autosize=1;strokeColor=none;fillColor=none;fontSize=24;" vertex="1" parent="1">
          <mxGeometry x="495" y="2520" width="30" height="40" as="geometry" />
        </mxCell>
        <mxCell id="E2Ne8hw-jMb7lJD2Bm2a-120" value="&lt;font style=&quot;font-size: 24px;&quot;&gt;2&lt;/font&gt;" style="rounded=0;whiteSpace=wrap;html=1;" vertex="1" parent="1">
          <mxGeometry x="150" y="2650" width="80" height="60" as="geometry" />
        </mxCell>
        <mxCell id="E2Ne8hw-jMb7lJD2Bm2a-121" value="&lt;font style=&quot;font-size: 24px;&quot;&gt;3&lt;/font&gt;" style="rounded=0;whiteSpace=wrap;html=1;" vertex="1" parent="1">
          <mxGeometry x="230" y="2650" width="80" height="60" as="geometry" />
        </mxCell>
        <mxCell id="E2Ne8hw-jMb7lJD2Bm2a-122" value="&lt;font style=&quot;font-size: 24px;&quot;&gt;1&lt;/font&gt;" style="rounded=0;whiteSpace=wrap;html=1;" vertex="1" parent="1">
          <mxGeometry x="310" y="2650" width="80" height="60" as="geometry" />
        </mxCell>
        <mxCell id="E2Ne8hw-jMb7lJD2Bm2a-123" value="&lt;font style=&quot;font-size: 24px;&quot;&gt;2&lt;/font&gt;" style="rounded=0;whiteSpace=wrap;html=1;" vertex="1" parent="1">
          <mxGeometry x="390" y="2650" width="80" height="60" as="geometry" />
        </mxCell>
        <mxCell id="E2Ne8hw-jMb7lJD2Bm2a-124" value="&lt;font style=&quot;font-size: 24px;&quot;&gt;4&lt;/font&gt;" style="rounded=0;whiteSpace=wrap;html=1;" vertex="1" parent="1">
          <mxGeometry x="470" y="2650" width="80" height="60" as="geometry" />
        </mxCell>
        <mxCell id="E2Ne8hw-jMb7lJD2Bm2a-125" value="&lt;font style=&quot;font-size: 24px;&quot;&gt;3&lt;/font&gt;" style="rounded=0;whiteSpace=wrap;html=1;" vertex="1" parent="1">
          <mxGeometry x="550" y="2650" width="80" height="60" as="geometry" />
        </mxCell>
        <mxCell id="E2Ne8hw-jMb7lJD2Bm2a-126" value="" style="shape=flexArrow;endArrow=classic;html=1;rounded=0;fontSize=24;fillColor=#FF0000;" edge="1" parent="1">
          <mxGeometry width="50" height="50" relative="1" as="geometry">
            <mxPoint x="429.5" y="2580" as="sourcePoint" />
            <mxPoint x="429.5" y="2640" as="targetPoint" />
            <Array as="points">
              <mxPoint x="430" y="2600" />
            </Array>
          </mxGeometry>
        </mxCell>
        <mxCell id="E2Ne8hw-jMb7lJD2Bm2a-127" value="i" style="text;html=1;align=center;verticalAlign=middle;resizable=0;points=[];autosize=1;strokeColor=none;fillColor=none;fontSize=24;" vertex="1" parent="1">
          <mxGeometry x="415" y="2530" width="30" height="40" as="geometry" />
        </mxCell>
        <mxCell id="E2Ne8hw-jMb7lJD2Bm2a-128" value="" style="shape=flexArrow;endArrow=classic;html=1;rounded=0;fontSize=24;fillColor=#FF0000;" edge="1" parent="1">
          <mxGeometry width="50" height="50" relative="1" as="geometry">
            <mxPoint x="589.5" y="2800" as="sourcePoint" />
            <mxPoint x="589.5" y="2730" as="targetPoint" />
          </mxGeometry>
        </mxCell>
        <mxCell id="E2Ne8hw-jMb7lJD2Bm2a-129" value="j" style="text;html=1;align=center;verticalAlign=middle;resizable=0;points=[];autosize=1;strokeColor=none;fillColor=none;fontSize=24;" vertex="1" parent="1">
          <mxGeometry x="575" y="2800" width="30" height="40" as="geometry" />
        </mxCell>
        <mxCell id="E2Ne8hw-jMb7lJD2Bm2a-130" value="j" style="text;html=1;align=center;verticalAlign=middle;resizable=0;points=[];autosize=1;strokeColor=none;fillColor=none;fontSize=24;" vertex="1" parent="1">
          <mxGeometry x="495" y="2520" width="30" height="40" as="geometry" />
        </mxCell>
        <mxCell id="E2Ne8hw-jMb7lJD2Bm2a-131" value="&lt;font style=&quot;font-size: 24px;&quot;&gt;2&lt;/font&gt;" style="rounded=0;whiteSpace=wrap;html=1;" vertex="1" parent="1">
          <mxGeometry x="150" y="2650" width="80" height="60" as="geometry" />
        </mxCell>
        <mxCell id="E2Ne8hw-jMb7lJD2Bm2a-132" value="&lt;font style=&quot;font-size: 24px;&quot;&gt;3&lt;/font&gt;" style="rounded=0;whiteSpace=wrap;html=1;" vertex="1" parent="1">
          <mxGeometry x="230" y="2650" width="80" height="60" as="geometry" />
        </mxCell>
        <mxCell id="E2Ne8hw-jMb7lJD2Bm2a-133" value="&lt;font style=&quot;font-size: 24px;&quot;&gt;1&lt;/font&gt;" style="rounded=0;whiteSpace=wrap;html=1;" vertex="1" parent="1">
          <mxGeometry x="310" y="2650" width="80" height="60" as="geometry" />
        </mxCell>
        <mxCell id="E2Ne8hw-jMb7lJD2Bm2a-134" value="&lt;font style=&quot;font-size: 24px;&quot;&gt;2&lt;/font&gt;" style="rounded=0;whiteSpace=wrap;html=1;" vertex="1" parent="1">
          <mxGeometry x="390" y="2650" width="80" height="60" as="geometry" />
        </mxCell>
        <mxCell id="E2Ne8hw-jMb7lJD2Bm2a-135" value="&lt;font style=&quot;font-size: 24px;&quot;&gt;4&lt;/font&gt;" style="rounded=0;whiteSpace=wrap;html=1;" vertex="1" parent="1">
          <mxGeometry x="470" y="2650" width="80" height="60" as="geometry" />
        </mxCell>
        <mxCell id="E2Ne8hw-jMb7lJD2Bm2a-136" value="&lt;font style=&quot;font-size: 24px;&quot;&gt;3&lt;/font&gt;" style="rounded=0;whiteSpace=wrap;html=1;" vertex="1" parent="1">
          <mxGeometry x="550" y="2650" width="80" height="60" as="geometry" />
        </mxCell>
        <mxCell id="E2Ne8hw-jMb7lJD2Bm2a-137" value="" style="shape=flexArrow;endArrow=classic;html=1;rounded=0;fontSize=24;fillColor=#FF0000;" edge="1" parent="1">
          <mxGeometry width="50" height="50" relative="1" as="geometry">
            <mxPoint x="429.5" y="2580" as="sourcePoint" />
            <mxPoint x="429.5" y="2640" as="targetPoint" />
            <Array as="points">
              <mxPoint x="430" y="2600" />
            </Array>
          </mxGeometry>
        </mxCell>
        <mxCell id="E2Ne8hw-jMb7lJD2Bm2a-138" value="i" style="text;html=1;align=center;verticalAlign=middle;resizable=0;points=[];autosize=1;strokeColor=none;fillColor=none;fontSize=24;" vertex="1" parent="1">
          <mxGeometry x="415" y="2530" width="30" height="40" as="geometry" />
        </mxCell>
        <mxCell id="E2Ne8hw-jMb7lJD2Bm2a-139" value="" style="shape=flexArrow;endArrow=classic;html=1;rounded=0;fontSize=24;fillColor=#FF0000;" edge="1" parent="1">
          <mxGeometry width="50" height="50" relative="1" as="geometry">
            <mxPoint x="589.5" y="2800" as="sourcePoint" />
            <mxPoint x="589.5" y="2730" as="targetPoint" />
          </mxGeometry>
        </mxCell>
        <mxCell id="E2Ne8hw-jMb7lJD2Bm2a-140" value="j" style="text;html=1;align=center;verticalAlign=middle;resizable=0;points=[];autosize=1;strokeColor=none;fillColor=none;fontSize=24;" vertex="1" parent="1">
          <mxGeometry x="575" y="2800" width="30" height="40" as="geometry" />
        </mxCell>
        <mxCell id="E2Ne8hw-jMb7lJD2Bm2a-142" value="&lt;font style=&quot;font-size: 24px;&quot;&gt;2&lt;/font&gt;" style="rounded=0;whiteSpace=wrap;html=1;" vertex="1" parent="1">
          <mxGeometry x="150" y="2980" width="80" height="60" as="geometry" />
        </mxCell>
        <mxCell id="E2Ne8hw-jMb7lJD2Bm2a-143" value="&lt;font style=&quot;font-size: 24px;&quot;&gt;3&lt;/font&gt;" style="rounded=0;whiteSpace=wrap;html=1;" vertex="1" parent="1">
          <mxGeometry x="230" y="2980" width="80" height="60" as="geometry" />
        </mxCell>
        <mxCell id="E2Ne8hw-jMb7lJD2Bm2a-144" value="&lt;font style=&quot;font-size: 24px;&quot;&gt;1&lt;/font&gt;" style="rounded=0;whiteSpace=wrap;html=1;" vertex="1" parent="1">
          <mxGeometry x="310" y="2980" width="80" height="60" as="geometry" />
        </mxCell>
        <mxCell id="E2Ne8hw-jMb7lJD2Bm2a-145" value="&lt;font style=&quot;font-size: 24px;&quot;&gt;2&lt;/font&gt;" style="rounded=0;whiteSpace=wrap;html=1;" vertex="1" parent="1">
          <mxGeometry x="390" y="2980" width="80" height="60" as="geometry" />
        </mxCell>
        <mxCell id="E2Ne8hw-jMb7lJD2Bm2a-146" value="&lt;font style=&quot;font-size: 24px;&quot;&gt;4&lt;/font&gt;" style="rounded=0;whiteSpace=wrap;html=1;" vertex="1" parent="1">
          <mxGeometry x="470" y="2980" width="80" height="60" as="geometry" />
        </mxCell>
        <mxCell id="E2Ne8hw-jMb7lJD2Bm2a-147" value="&lt;font style=&quot;font-size: 24px;&quot;&gt;3&lt;/font&gt;" style="rounded=0;whiteSpace=wrap;html=1;" vertex="1" parent="1">
          <mxGeometry x="550" y="2980" width="80" height="60" as="geometry" />
        </mxCell>
        <mxCell id="E2Ne8hw-jMb7lJD2Bm2a-148" value="" style="shape=flexArrow;endArrow=classic;html=1;rounded=0;fontSize=24;fillColor=#FF0000;" edge="1" parent="1">
          <mxGeometry width="50" height="50" relative="1" as="geometry">
            <mxPoint x="509.5" y="2910" as="sourcePoint" />
            <mxPoint x="509.5" y="2970" as="targetPoint" />
            <Array as="points">
              <mxPoint x="510" y="2930" />
            </Array>
          </mxGeometry>
        </mxCell>
        <mxCell id="E2Ne8hw-jMb7lJD2Bm2a-149" value="i" style="text;html=1;align=center;verticalAlign=middle;resizable=0;points=[];autosize=1;strokeColor=none;fillColor=none;fontSize=24;" vertex="1" parent="1">
          <mxGeometry x="495" y="2860" width="30" height="40" as="geometry" />
        </mxCell>
        <mxCell id="E2Ne8hw-jMb7lJD2Bm2a-150" value="" style="shape=flexArrow;endArrow=classic;html=1;rounded=0;fontSize=24;fillColor=#FF0000;" edge="1" parent="1">
          <mxGeometry width="50" height="50" relative="1" as="geometry">
            <mxPoint x="589.5" y="3130" as="sourcePoint" />
            <mxPoint x="589.5" y="3060" as="targetPoint" />
          </mxGeometry>
        </mxCell>
        <mxCell id="E2Ne8hw-jMb7lJD2Bm2a-151" value="j" style="text;html=1;align=center;verticalAlign=middle;resizable=0;points=[];autosize=1;strokeColor=none;fillColor=none;fontSize=24;" vertex="1" parent="1">
          <mxGeometry x="575" y="3130" width="30" height="40" as="geometry" />
        </mxCell>
        <mxCell id="E2Ne8hw-jMb7lJD2Bm2a-161" value="j" style="text;html=1;align=center;verticalAlign=middle;resizable=0;points=[];autosize=1;strokeColor=none;fillColor=none;fontSize=24;" vertex="1" parent="1">
          <mxGeometry x="575" y="3417" width="30" height="40" as="geometry" />
        </mxCell>
        <mxCell id="E2Ne8hw-jMb7lJD2Bm2a-162" value="&lt;font style=&quot;font-size: 24px;&quot;&gt;2&lt;/font&gt;" style="rounded=0;whiteSpace=wrap;html=1;" vertex="1" parent="1">
          <mxGeometry x="150" y="3300" width="80" height="60" as="geometry" />
        </mxCell>
        <mxCell id="E2Ne8hw-jMb7lJD2Bm2a-163" value="&lt;font style=&quot;font-size: 24px;&quot;&gt;3&lt;/font&gt;" style="rounded=0;whiteSpace=wrap;html=1;" vertex="1" parent="1">
          <mxGeometry x="230" y="3300" width="80" height="60" as="geometry" />
        </mxCell>
        <mxCell id="E2Ne8hw-jMb7lJD2Bm2a-164" value="&lt;font style=&quot;font-size: 24px;&quot;&gt;1&lt;/font&gt;" style="rounded=0;whiteSpace=wrap;html=1;" vertex="1" parent="1">
          <mxGeometry x="310" y="3300" width="80" height="60" as="geometry" />
        </mxCell>
        <mxCell id="E2Ne8hw-jMb7lJD2Bm2a-165" value="&lt;font style=&quot;font-size: 24px;&quot;&gt;2&lt;/font&gt;" style="rounded=0;whiteSpace=wrap;html=1;" vertex="1" parent="1">
          <mxGeometry x="390" y="3300" width="80" height="60" as="geometry" />
        </mxCell>
        <mxCell id="E2Ne8hw-jMb7lJD2Bm2a-166" value="&lt;font style=&quot;font-size: 24px;&quot;&gt;4&lt;/font&gt;" style="rounded=0;whiteSpace=wrap;html=1;" vertex="1" parent="1">
          <mxGeometry x="470" y="3300" width="80" height="60" as="geometry" />
        </mxCell>
        <mxCell id="E2Ne8hw-jMb7lJD2Bm2a-167" value="&lt;font style=&quot;font-size: 24px;&quot;&gt;3&lt;/font&gt;" style="rounded=0;whiteSpace=wrap;html=1;" vertex="1" parent="1">
          <mxGeometry x="550" y="3300" width="80" height="60" as="geometry" />
        </mxCell>
        <mxCell id="E2Ne8hw-jMb7lJD2Bm2a-168" value="" style="shape=flexArrow;endArrow=classic;html=1;rounded=0;fontSize=24;fillColor=#FF0000;" edge="1" parent="1">
          <mxGeometry width="50" height="50" relative="1" as="geometry">
            <mxPoint x="589.5" y="3230" as="sourcePoint" />
            <mxPoint x="589.5" y="3290" as="targetPoint" />
            <Array as="points">
              <mxPoint x="590" y="3250" />
            </Array>
          </mxGeometry>
        </mxCell>
        <mxCell id="E2Ne8hw-jMb7lJD2Bm2a-169" value="i" style="text;html=1;align=center;verticalAlign=middle;resizable=0;points=[];autosize=1;strokeColor=none;fillColor=none;fontSize=24;" vertex="1" parent="1">
          <mxGeometry x="575" y="3180" width="30" height="40" as="geometry" />
        </mxCell>
        <mxCell id="E2Ne8hw-jMb7lJD2Bm2a-170" value="" style="shape=flexArrow;endArrow=classic;html=1;rounded=0;fontSize=24;fillColor=#FF0000;" edge="1" parent="1">
          <mxGeometry width="50" height="50" relative="1" as="geometry">
            <mxPoint x="589.5" y="3450" as="sourcePoint" />
            <mxPoint x="589.5" y="3380" as="targetPoint" />
          </mxGeometry>
        </mxCell>
        <mxCell id="E2Ne8hw-jMb7lJD2Bm2a-171" value="j" style="text;html=1;align=center;verticalAlign=middle;resizable=0;points=[];autosize=1;strokeColor=none;fillColor=none;fontSize=24;" vertex="1" parent="1">
          <mxGeometry x="575" y="3450" width="30" height="40" as="geometry" />
        </mxCell>
      </root>
    </mxGraphModel>
  </diagram>
</mxfile>
